<svg width="26" height="27" viewBox="0 0 26 27" fill="none" xmlns="http://www.w3.org/2000/svg">
<g clip-path="url(#clip0_103_192)">
<path d="M23.1531 18.2095C21.0317 18.2567 19.7219 17.8575 17.953 18.0843C18.0677 17.267 17.1572 18.5297 16.7152 17.7065C16.8244 18.0267 16.2803 17.774 16.2196 18.2095C15.8357 18.1374 15.8939 17.619 15.4774 17.5816C14.9181 17.4338 15.1999 18.1374 14.6093 17.9581C14.6406 17.8215 14.8571 17.8733 14.8571 17.7081C14.5514 17.7425 13.9627 17.6032 13.7441 18.0843C13.5757 17.9608 13.5825 17.6606 13.3715 17.5816C12.2245 18.0843 10.6398 17.1766 9.28603 18.2095C8.9264 18.1001 9.14712 18.0227 9.16291 17.7081C8.24084 17.7209 7.12357 17.7727 5.94237 17.833C5.58407 14.4933 5.31652 10.1215 5.20024 7.03264C10.2136 7.23383 18.0819 6.44081 25.0096 6.90777C24.3456 10.6295 23.7692 14.4402 23.1531 18.2095ZM17.6754 5.28329C17.984 5.33665 16.7747 5.62083 16.8383 5.52611C16.7294 5.22165 17.752 5.24593 17.0848 5.14987C16.6939 4.74188 17.0396 5.52344 16.5905 5.39963C16.3498 5.18429 16.1898 4.88544 15.5992 5.02339C15.5595 5.18349 15.4393 5.48154 14.8571 5.39963C14.8684 5.20297 15.1728 5.30197 15.1036 5.02339C14.5146 5.36387 13.9311 5.06075 13.3715 5.52611C13.3589 5.32945 13.3873 5.0909 13.1237 5.14827C11.4003 5.23019 9.0198 4.96736 6.93231 5.52611C7.0257 5.28756 7.30193 5.43858 7.05701 5.14827C6.35882 5.32651 6.03313 5.10958 5.19893 5.14827C5.00636 3.51659 5.00504 2.43218 4.95243 0.754336C4.70041 0.464022 4.35762 0.268701 4.08587 0H1.11473C0.922156 0.43387 -0.0267473 0.0976608 -0.000439987 0.754069V1.13057C0.560431 2.42044 2.25857 1.61727 3.3419 1.88304C3.04147 3.21187 3.4537 5.00872 3.58971 6.65641C3.93513 10.8478 3.63207 15.4544 4.45627 19.3398C10.0218 19.288 18.1818 19.538 24.0194 19.2133C24.6368 14.7748 25.832 10.2546 25.999 5.77719C22.7496 5.36067 20.0065 5.52877 17.6754 5.28329Z" fill="white"/>
<path d="M18.8184 25.2408C18.9331 24.8832 18.7532 24.5542 18.3241 23.9853C18.3638 22.8142 19.5305 22.6941 20.6773 22.9815C21.3786 24.0227 20.2585 26.4164 18.8184 25.2408ZM17.4573 21.5996C15.6092 22.7832 16.4108 26.8028 19.1906 26.9989H19.685C21.2994 26.5752 22.4422 25.0356 22.0387 23.2329C21.5799 21.1844 18.4372 21.2031 17.4573 21.5996Z" fill="white"/>
<path d="M9.28654 25.1167C8.89719 25.3064 8.54441 25.5348 8.04879 25.6181C7.40873 25.1613 7.56868 24.6714 7.05753 24.1113C6.86206 22.6971 8.21505 22.7712 9.28654 22.9823C9.61144 23.6187 9.54961 24.4432 9.28654 25.1167ZM7.05884 21.349C6.84233 21.3693 6.9231 21.5286 6.68791 21.599C6.12993 21.7685 5.9884 21.5702 5.32546 22.3531C4.56518 24.0075 5.70086 27.1478 7.92567 26.8749V27H8.2966C11.832 26.0218 11.4174 20.9554 7.05805 21.349H7.05884Z" fill="white"/>
</g>
<defs>
<clipPath id="clip0_103_192">
<rect width="26" height="27" fill="white"/>
</clipPath>
</defs>
</svg>
