<svg width="70" height="50" viewBox="0 0 70 50" fill="none" xmlns="http://www.w3.org/2000/svg">
<path d="M20.2493 46.943C18.7666 46.281 17.8232 45.2433 16.2305 44.7307C14.6379 44.218 13.2228 43.7428 11.7535 42.979C10.5531 42.3564 9.54549 41.1838 8.48204 40.3682C7.53187 39.6377 6.46504 38.8926 5.68225 38.1061C4.89945 37.3195 4.91467 35.1009 3.28822 35.2005C2.16221 33.1023 1.59752 31.0871 0.708212 28.8955C-0.867519 24.9876 0.370072 19.8386 2.36848 16.1029C4.51905 12.0974 8.23858 8.60248 12.1323 5.37942C13.0774 4.59492 14.7224 3.22933 16.0209 2.77274C16.9281 2.25239 17.9281 2.02317 18.9272 2.10655C18.6144 2.22899 23.4921 0.529259 22.9696 0.639254C26.9073 -0.190897 32.0757 0.224179 36.4716 0.224179C40.6476 0.224179 46.565 -0.475223 50.3674 0.620576C55.0473 1.97165 60.5116 5.26942 62.5658 8.46758C66.3597 14.3824 70.2365 18.7988 69.993 25.6932C69.7733 31.8239 65.09 37.1451 60.187 41.5844C53.9314 47.246 45.4576 48.6407 36.5172 49.8423C32.2651 50.4172 28.133 49.4604 24.8125 48.3729" fill="black"/>
</svg>
