<svg width="32" height="32" viewBox="0 0 32 32" fill="none" xmlns="http://www.w3.org/2000/svg">
<path d="M9.25596 30.043C8.58179 29.6159 8.14691 28.9537 7.42175 28.6252C6.69658 28.2966 6.04572 27.9937 5.37483 27.5049C4.82631 27.1033 4.36594 26.3557 3.88153 25.8329C3.44519 25.3704 2.95787 24.8918 2.59947 24.3881C2.24618 23.8927 2.24946 22.4643 1.50681 22.5325C0.990714 21.1892 0.729204 19.9006 0.326377 18.4995C-0.393686 15.9967 0.175226 12.7011 1.08578 10.3108C2.06443 7.74192 3.76461 5.50491 5.54456 3.4413C5.97798 2.94082 6.73046 2.0658 7.32159 1.77486C7.50281 1.61781 7.71393 1.49921 7.94217 1.42624C8.17041 1.35327 8.41105 1.32744 8.64953 1.35031C8.50712 1.42332 10.7354 0.33949 10.4976 0.409579C12.2983 -0.126676 14.661 0.140539 16.6704 0.140539C18.5796 0.140539 21.2854 -0.307374 23.0231 0.396072C25.1633 1.26233 27.6618 3.37194 28.5993 5.4162C30.3352 9.2043 32.1071 12.0301 31.9949 16.4363C31.8948 20.3569 29.7528 23.7642 27.5088 26.6028C24.6486 30.2274 20.7759 31.1177 16.6915 31.8891C14.7466 32.2585 12.8577 31.6438 11.3375 30.9494" fill="black"/>
</svg>
