<svg width="23" height="25" viewBox="0 0 23 25" fill="none" xmlns="http://www.w3.org/2000/svg">
<g clip-path="url(#clip0_103_435)">
<mask id="mask0_103_435" style="mask-type:luminance" maskUnits="userSpaceOnUse" x="0" y="0" width="23" height="25">
<path d="M23 0H0V24.9996H23V0Z" fill="white"/>
</mask>
<g mask="url(#mask0_103_435)">
<path d="M22.8796 22.7185C22.3389 21.9114 21.765 21.1181 21.1346 20.3855C20.0269 19.0953 18.7586 17.9367 17.7563 16.5679C16.7123 15.1411 15.7792 13.6261 14.834 12.1207C15.6989 11.2203 16.5602 10.3147 17.4039 9.39411C18.9781 7.67731 20.5083 5.92317 22.0489 4.17739C22.1939 4.01433 22.32 3.79811 22.3706 3.60234C22.6358 2.59591 22.3012 1.39868 21.5999 1.21393C20.7008 0.978152 19.7594 1.24487 18.9722 2.0886C17.1023 4.09168 15.2865 6.14669 13.3987 8.1343C13.1667 8.37843 12.9344 8.62364 12.705 8.87134C12.6009 8.70455 12.5012 8.53544 12.4081 8.36385C11.7412 7.13693 11.1578 5.86307 10.5581 4.59934C10.2894 4.03283 9.99964 3.46133 9.83818 2.86085C9.27695 0.782556 8.167 -0.0994035 6.14601 0.0094189C4.58237 0.0926361 3.96617 1.31173 4.74747 2.7579C5.62989 4.39272 6.50814 6.02968 7.38223 7.66878L7.19839 7.78116C8.07265 9.1802 8.9764 10.5624 9.84494 11.9637C7.23481 14.7883 4.57057 17.5647 1.43946 19.8853C0.926799 20.561 0.0218389 21.3098 -1.3378e-05 21.8909C-0.0270685 22.629 0.520278 23.3963 1.08289 23.8469C1.68035 24.3252 2.50155 23.726 3.14844 23.1557C3.7447 22.6315 4.29152 22.0467 4.89003 21.5273C6.63405 20.0135 8.42506 18.5588 10.1337 17.004C10.7324 16.4605 11.292 15.8731 11.8458 15.2776C13.979 18.5576 16.7417 21.2687 19.3649 24.1054C20.6528 25.4972 22.2693 25.224 22.9388 23.572C23.0342 23.3339 23.0165 22.9244 22.8786 22.7185" fill="white"/>
</g>
</g>
<defs>
<clipPath id="clip0_103_435">
<rect width="23" height="25" fill="white"/>
</clipPath>
</defs>
</svg>
