<svg width="153" height="41" viewBox="0 0 153 41" fill="none" xmlns="http://www.w3.org/2000/svg">
<path d="M21.5883 2.02435L47.074 2.53949C49.9858 2.59834 56.7453 2.77751 58.4354 2.56561C63.7344 1.90123 68.9696 2.34033 74.2699 1.93251C84.8096 1.12155 95.296 0.212898 105.868 0.426591C114.687 0.604849 124.388 -0.692639 132.605 3.34934C137.495 5.75532 142.687 4.70844 146.253 9.20405C150.305 14.3111 152.423 18.0702 152.287 24.7884L152.285 24.8818C152.208 28.7105 152.132 32.5087 149.255 35.2118C146.858 37.4644 143.206 37.4872 140.232 37.8889C128.948 39.4129 117.562 40.0368 106.206 39.8073C98.2142 39.6458 90.454 39.7251 82.4847 40.4928C76.76 41.0443 71.1411 39.4154 65.4212 39.6334C61.0064 39.8018 56.7603 40.3851 52.307 40.295L30.3973 39.8522C26.1641 39.7666 22.0505 38.7303 17.8248 38.6449C15.7578 38.6031 12.4651 38.5195 10.5114 37.7557C6.16575 36.0568 3.52934 34.0661 0.944071 29.9636C-1.56081 25.9886 -0.448826 20.3501 -0.356297 15.7723C-0.259582 10.9874 1.50568 8.06809 4.75078 4.91417C8.83728 0.942492 16.418 1.91985 21.5883 2.02435Z" fill="black"/>
</svg>
