<svg width="58" height="47" viewBox="0 0 58 47" fill="none" xmlns="http://www.w3.org/2000/svg">
<path d="M58 25.5543C53.5569 30.1488 28.6636 45.6155 23.4536 47C23.8153 45.4084 24.1409 43.9612 24.4864 42.5166C24.7966 41.2254 25.1619 39.9468 25.4477 38.6529C25.9505 36.3825 25.5499 35.3944 23.3152 34.8133C20.2766 34.0251 17.1737 33.3186 14.0564 33.0289C10.0772 32.6577 6.05467 32.751 2.05199 32.6102C1.50304 32.5905 0.96224 32.3771 0.279451 32.2228C0.189016 31.5324 -0.0352655 30.885 0.0370841 30.2699C0.636671 25.1535 0.364459 20.0478 0.0235166 14.9278C-0.104901 13.0152 0.245086 12.6341 1.97331 12.5857C6.84056 12.4503 11.7087 12.2629 16.5741 12.2916C19.4328 12.3086 22.2969 12.6234 25.1429 12.9462C27.8949 13.2564 28.5569 12.4279 27.5992 9.78359C26.6668 7.20566 25.8411 4.58827 24.9964 1.98254C24.8571 1.54945 24.8626 1.07242 24.717 -2.9097e-06C31.1479 3.62973 36.442 8.00369 41.8572 12.1714C47.3494 16.3975 53.0197 20.4343 58 25.5543Z" fill="white"/>
</svg>
