<svg width="118" height="108" viewBox="0 0 118 108" fill="none" xmlns="http://www.w3.org/2000/svg">
<g clip-path="url(#clip0_319_10)">
<path d="M93.5014 95.5857C94.7522 94.5049 95.1757 93.1477 94.8601 91.7126L96.0554 92.8942L98.2251 91.017L90.6269 82.3378L88.2184 84.4198L92.3306 89.117C93.449 90.3961 93.4556 91.8052 92.4941 92.6325C91.5327 93.4598 90.617 93.2924 89.7848 92.3416L85.1624 87.0593L82.7539 89.143L87.9355 95.064C89.6 96.9656 91.8237 97.0322 93.4948 95.5857M98.8563 77.1092L103.09 77.6098L105.56 80.1388L105.931 80.3208L108.413 75.2986L108.042 75.1166L104.519 74.7184L101.539 71.6953L109.797 72.5161L111.214 69.6458L98.7876 68.7015L97.4665 71.3767L100.683 74.6469L96.1224 74.0943L94.7898 76.7906L103.144 85.9785L104.551 83.131L98.8563 77.1092ZM103.554 56.8969C103.647 55.543 104.775 54.4069 107.061 54.5613C109.347 54.7157 110.286 55.9948 110.192 57.3487C110.099 58.7026 108.971 59.8387 106.71 59.6859C104.448 59.5331 103.459 58.2752 103.554 56.8969ZM113.013 57.547C113.229 54.4053 111.123 51.639 107.28 51.3709C103.438 51.1027 100.949 53.5634 100.74 56.7051C100.531 59.8468 102.653 62.6391 106.494 62.8991C110.335 63.1592 112.804 60.6822 113.019 57.5356M102.207 42.7128C101.88 41.4126 102.727 40.4862 104.949 39.9336C107.171 39.381 108.335 39.8149 108.66 41.1087C108.986 42.4024 108.17 43.376 105.954 43.9286C103.739 44.4812 102.532 44.0066 102.207 42.7128ZM110.564 42.7827C111.321 41.9945 111.556 41.0371 111.249 39.8149C110.634 37.377 108.142 35.9434 104.192 36.9251C100.218 37.9133 98.6944 40.3383 99.3092 42.7844C99.6591 44.1707 100.475 44.9168 101.746 45.1752L100.395 45.6108L101.093 48.3835L117.997 44.1789L117.236 41.12L110.564 42.7827ZM91.6455 27.3049L93.5635 29.842L107.495 19.4401L105.577 16.903L91.6455 27.3049ZM87.3616 22.8305L89.6507 25.0425L101.796 12.6235L99.5071 10.4115L87.3616 22.8305ZM81.9085 15.7848C80.7394 15.0843 80.2358 13.5662 81.418 11.6158C82.6002 9.66548 84.1715 9.42006 85.3422 10.1206C86.5129 10.8211 87.0149 12.3375 85.8426 14.2667C84.6702 16.196 83.0956 16.4966 81.9069 15.7848M86.8007 7.71349C84.0865 6.08818 80.6495 6.68792 78.6629 9.96616C76.6762 13.2444 77.7341 16.5649 80.4467 18.1918C83.1594 19.8188 86.6307 19.2093 88.6222 15.931C90.6138 12.6528 89.5166 9.33879 86.804 7.71349M75.7311 2.6214C74.3217 2.23295 73.2785 2.6214 72.5656 3.81113L72.8844 2.21345L70.1129 1.45118L67.0226 12.539L70.0999 13.3874L71.7595 7.43393C72.1813 5.9159 73.2997 5.44456 74.6389 5.80863C75.0921 5.9475 75.5342 6.11972 75.9617 6.32385L76.879 3.0326C76.5128 2.85537 76.1292 2.71595 75.7344 2.61653M61.2883 7.61759C61.0153 8.77644 60.2566 9.42656 59.1349 9.42656C57.7712 9.42656 56.5825 8.34736 56.5923 6.09468C56.6038 3.86639 57.8039 2.80669 59.1692 2.81319C60.2647 2.81319 61.0169 3.45193 61.2556 4.51976L64.498 4.53601C64.2446 1.5747 62.0094 0.0144095 59.1905 -0.00021826C56.0233 -0.0164713 53.4039 2.24758 53.3843 6.07518C53.3646 9.90277 55.9612 12.2172 59.13 12.2335C62.0045 12.2481 64.2315 10.6358 64.5144 7.63385L61.2883 7.61759ZM44.3961 6.83907C43.2516 7.0016 42.9245 6.62291 42.7823 6.13694C42.5697 5.44131 43.1093 4.87245 43.9269 4.62703C44.9079 4.33122 45.6895 4.7278 46.0231 5.48844L48.8698 4.63028C48.1536 2.61815 46.0051 1.41867 43.2761 2.24108C40.8038 2.9871 39.2178 4.8822 39.9389 7.24702C40.5259 9.17139 41.9468 9.90765 43.9514 9.63135L45.6928 9.41031C46.8455 9.26565 47.2363 9.62972 47.3704 10.0702C47.5829 10.7658 46.9665 11.3314 46.1735 11.5703C45.1466 11.8791 44.3095 11.4728 43.9906 10.7577L41.1456 11.6158C41.8585 13.6296 44.0708 14.7901 46.8226 13.9563C49.2753 13.2168 50.9185 11.3558 50.1893 8.9666C49.6105 7.06499 48.2043 6.29947 46.131 6.59528L44.3961 6.83907ZM22.6216 13.6962C21.4116 14.8226 21.0371 16.1976 21.4034 17.6149L20.1656 16.4771L18.0645 18.4275L25.9719 26.8336L28.3035 24.6654L24.0261 20.1146C22.8603 18.8761 22.8047 17.4686 23.7302 16.6088C24.6556 15.749 25.5827 15.8823 26.4477 16.8022L31.2581 21.9154L33.5914 19.7489L28.1956 14.0148C26.4657 12.175 24.2403 12.1863 22.6199 13.6897M17.9272 32.358L13.6759 32.0118L11.1187 29.5804L10.7393 29.4178L8.45018 34.5278L8.82789 34.6903L12.3646 34.9585L15.4533 37.8694L7.17153 37.3493L5.86346 40.2749L18.3213 40.7625L19.541 38.032L16.2054 34.8805L20.7837 35.2657L22.0166 32.5238L13.3195 23.6561L12.0196 26.554L17.9272 32.358ZM13.9686 52.728C13.9261 54.0835 12.842 55.2618 10.5529 55.1936C8.26378 55.1253 7.28272 53.8836 7.31869 52.5264C7.35466 51.1693 8.44364 49.9926 10.7082 50.0592C12.9974 50.1275 14.0095 51.3448 13.9686 52.7264M4.48507 52.4403C4.39023 55.5885 6.59925 58.2719 10.4483 58.3889C14.2973 58.5059 16.6911 55.9591 16.7875 52.8109C16.884 49.6627 14.6505 46.9598 10.8014 46.8379C6.95243 46.716 4.58808 49.2921 4.48507 52.4403ZM15.831 66.8486C16.2038 68.1278 15.3944 69.0932 13.1952 69.7271C10.996 70.3609 9.81385 69.9692 9.43451 68.6901C9.05516 67.411 9.83347 66.4066 12.0343 65.7727C14.2351 65.1388 15.4517 65.5695 15.8245 66.8486M7.47076 67.0876C6.74314 67.9002 6.54366 68.8754 6.8952 70.0781C7.60156 72.4982 10.1474 73.8326 14.0569 72.7062C17.9664 71.5799 19.4217 69.0916 18.7169 66.6715C18.3163 65.2981 17.4726 64.583 16.194 64.3717L17.5233 63.8841L16.7238 61.1389L0 65.9661L0.882952 68.9908L7.47076 67.0876ZM26.9284 81.8616L24.9401 79.396L11.3934 90.2856L13.4078 92.7577L26.9284 81.8616ZM31.3939 86.1817L29.0262 84.0525L17.3353 96.8924L19.7029 99.0216L31.3939 86.1817ZM37.1003 93.0356C38.2956 93.6857 38.8532 95.1907 37.7429 97.1817C36.6327 99.1727 35.0679 99.4783 33.8743 98.8184C32.6807 98.1586 32.1215 96.6633 33.2203 94.6934C34.319 92.7235 35.8822 92.3643 37.0971 93.034M32.5041 101.278C35.2837 102.804 38.688 102.079 40.5537 98.7307C42.4193 95.3825 41.2388 92.101 38.4673 90.5749C35.6958 89.0487 32.2539 89.7833 30.385 93.1315C28.5161 96.4796 29.731 99.7514 32.5106 101.278M43.7666 105.97C45.1892 106.305 46.2193 105.876 46.8831 104.67L46.6248 106.277L49.4241 106.937L52.0925 95.7303L48.9859 94.999L47.5535 101.013C47.1889 102.545 46.0819 103.057 44.7379 102.739C44.2789 102.619 43.8301 102.463 43.3955 102.274L42.6041 105.598C42.9779 105.761 43.3674 105.886 43.7666 105.971M58.0067 100.46C58.2372 99.2898 58.9698 98.6104 60.0898 98.5746C61.4551 98.5291 62.6831 99.5498 62.7583 101.807C62.8335 104.065 61.6726 105.139 60.3056 105.183C59.2101 105.221 58.4334 104.614 58.1555 103.558L54.9147 103.663C55.281 106.609 57.5734 108.084 60.3988 107.993C63.5644 107.889 66.0971 105.528 65.9696 101.702C65.8421 97.8757 63.1605 95.6621 59.995 95.7661C57.1205 95.8587 54.9572 97.5539 54.7888 100.566L58.0067 100.46ZM74.9136 100.623C76.0581 100.413 76.3852 100.785 76.5487 101.273C76.7858 101.96 76.2674 102.547 75.4613 102.823C74.4934 103.148 73.6954 102.786 73.3357 102.038L70.5233 103C71.3131 104.983 73.5058 106.105 76.202 105.183C78.6481 104.344 80.1622 102.394 79.3545 100.057C78.7005 98.1553 77.2485 97.4727 75.2569 97.8205L73.5254 98.1049C72.3808 98.2918 71.9737 97.9424 71.8232 97.5084C71.5862 96.8209 72.1813 96.2326 72.9678 95.9644C73.9816 95.6182 74.8335 95.9936 75.1801 96.6958L77.9941 95.7303C77.2043 93.7458 74.9512 92.6715 72.232 93.6012C69.8121 94.4285 68.2358 96.3512 69.0518 98.7112C69.7058 100.59 71.1349 101.304 73.1967 100.931L74.9136 100.623Z" fill="black"/>
</g>
<defs>
<clipPath id="clip0_319_10">
<rect width="118" height="108" fill="white"/>
</clipPath>
</defs>
</svg>
