<svg width="28" height="28" viewBox="0 0 28 28" fill="none" xmlns="http://www.w3.org/2000/svg">
<mask id="path-1-outside-1_103_191" maskUnits="userSpaceOnUse" x="0.000976562" y="0.000305176" width="28" height="28" fill="black">
<rect fill="white" x="0.000976562" y="0.000305176" width="28" height="28"/>
<path d="M8.94263 24.5323C8.43702 24.212 8.11088 23.7153 7.56703 23.4689C7.02319 23.2225 6.53506 22.9953 6.03192 22.6287C5.62055 22.3275 5.27528 21.7668 4.91199 21.3748C4.58475 21.0279 4.21928 20.6689 3.95049 20.2911C3.68554 19.9196 3.68799 18.8483 3.13104 18.8995C2.74398 17.892 2.54785 16.9255 2.24575 15.8747C1.70573 13.9977 2.13239 11.526 2.81527 9.73327C3.54923 7.80667 4.82431 6.12893 6.1592 4.58124C6.48426 4.20589 7.04859 3.54963 7.49192 3.33143C7.62783 3.21364 7.78616 3.1247 7.95733 3.06997C8.12851 3.01525 8.30897 2.99587 8.48783 3.01302C8.38103 3.06778 10.0522 2.25492 9.87381 2.30749C11.2243 1.9053 12.9962 2.10571 14.5032 2.10571C15.9351 2.10571 17.9643 1.76978 19.2675 2.29736C20.8726 2.94704 22.7464 4.52923 23.4495 6.06241C24.7513 8.90344 26.0802 11.0228 25.9961 14.3273C25.921 17.2678 24.3146 19.8232 22.6317 21.9522C20.4866 24.6705 17.5822 25.3383 14.519 25.9168C13.0604 26.1939 11.6438 25.7328 10.5037 25.2121"/>
</mask>
<path d="M8.94263 24.5323C8.43702 24.212 8.11088 23.7153 7.56703 23.4689C7.02319 23.2225 6.53506 22.9953 6.03192 22.6287C5.62055 22.3275 5.27528 21.7668 4.91199 21.3748C4.58475 21.0279 4.21928 20.6689 3.95049 20.2911C3.68554 19.9196 3.68799 18.8483 3.13104 18.8995C2.74398 17.892 2.54785 16.9255 2.24575 15.8747C1.70573 13.9977 2.13239 11.526 2.81527 9.73327C3.54923 7.80667 4.82431 6.12893 6.1592 4.58124C6.48426 4.20589 7.04859 3.54963 7.49192 3.33143C7.62783 3.21364 7.78616 3.1247 7.95733 3.06997C8.12851 3.01525 8.30897 2.99587 8.48783 3.01302C8.38103 3.06778 10.0522 2.25492 9.87381 2.30749C11.2243 1.9053 12.9962 2.10571 14.5032 2.10571C15.9351 2.10571 17.9643 1.76978 19.2675 2.29736C20.8726 2.94704 22.7464 4.52923 23.4495 6.06241C24.7513 8.90344 26.0802 11.0228 25.9961 14.3273C25.921 17.2678 24.3146 19.8232 22.6317 21.9522C20.4866 24.6705 17.5822 25.3383 14.519 25.9168C13.0604 26.1939 11.6438 25.7328 10.5037 25.2121" fill="white"/>
<path d="M6.03192 22.6287L5.14584 23.839L5.1486 23.841L6.03192 22.6287ZM4.91199 21.3748L6.01229 20.3552L6.0031 20.3454L4.91199 21.3748ZM3.95049 20.2911L5.17276 19.4216L5.17174 19.4202L3.95049 20.2911ZM3.13104 18.8995L1.73081 19.4374L2.13791 20.4971L3.26834 20.3932L3.13104 18.8995ZM2.24575 15.8747L3.68735 15.4603L3.68728 15.46L2.24575 15.8747ZM2.81527 9.73327L1.41354 9.19927L1.41352 9.19932L2.81527 9.73327ZM6.1592 4.58124L5.02529 3.59929L5.02334 3.60155L6.1592 4.58124ZM7.49192 3.33143L8.15432 4.67724L8.328 4.59176L8.47428 4.46499L7.49192 3.33143ZM8.48783 3.01302L9.17216 4.34782L13.7338 2.00914L8.631 1.51987L8.48783 3.01302ZM9.87381 2.30749L9.44567 0.869883L10.2978 3.7463L9.87381 2.30749ZM19.2675 2.29736L18.7047 3.68774L18.7047 3.68777L19.2675 2.29736ZM23.4495 6.06241L24.8131 5.43754L24.813 5.43714L23.4495 6.06241ZM25.9961 14.3273L27.4956 14.3656L27.4956 14.3655L25.9961 14.3273ZM22.6317 21.9522L21.4549 21.022L21.4541 21.023L22.6317 21.9522ZM14.519 25.9168L14.2407 24.4429L14.2391 24.4431L14.519 25.9168ZM9.7454 23.2652C9.63519 23.1954 9.55033 23.1124 9.28279 22.8672C9.05911 22.6621 8.69208 22.3319 8.18607 22.1026L6.94799 24.8352C6.98584 24.8524 7.0538 24.8936 7.25556 25.0786C7.41344 25.2233 7.74446 25.5489 8.13986 25.7994L9.7454 23.2652ZM8.18607 22.1026C7.64256 21.8564 7.28147 21.6832 6.91523 21.4163L5.1486 23.841C5.78866 24.3074 6.40381 24.5887 6.94799 24.8352L8.18607 22.1026ZM6.91799 21.4184C6.88273 21.3925 6.79758 21.3122 6.62098 21.0935C6.49292 20.9349 6.23973 20.6007 6.01224 20.3552L3.81174 22.3943C3.94754 22.5408 4.04863 22.6831 4.28687 22.9781C4.47657 23.2131 4.76973 23.5636 5.14585 23.839L6.91799 21.4184ZM6.0031 20.3454C5.61402 19.933 5.36279 19.6887 5.17276 19.4216L2.72823 21.1607C3.07576 21.6492 3.55549 22.1227 3.82088 22.4041L6.0031 20.3454ZM5.17174 19.4202C5.26492 19.5508 5.27261 19.6344 5.2253 19.4773C5.21388 19.4394 5.12697 19.1243 5.07398 18.9645C5.01155 18.7763 4.88099 18.4103 4.61084 18.0849C4.279 17.6852 3.72038 17.339 2.99373 17.4058L3.26834 20.3932C3.0878 20.4098 2.88045 20.3819 2.68024 20.2883C2.4901 20.1994 2.36871 20.0808 2.30272 20.0013C2.23975 19.9254 2.21289 19.8684 2.21012 19.8626C2.20627 19.8545 2.21217 19.8657 2.22655 19.9091C2.24078 19.952 2.2564 20.0049 2.27803 20.0815C2.29666 20.1475 2.32484 20.2497 2.35269 20.3422C2.3814 20.4376 2.42084 20.5607 2.4729 20.6885C2.52308 20.8116 2.6033 20.9855 2.72925 21.1621L5.17174 19.4202ZM4.53126 18.3616C4.17341 17.4301 4.03194 16.6588 3.68735 15.4603L0.804147 16.2892C1.06377 17.1922 1.31454 18.3539 1.73081 19.4374L4.53126 18.3616ZM3.68728 15.46C3.27504 14.0272 3.58883 11.9164 4.21702 10.2672L1.41352 9.19932C0.675953 11.1356 0.136409 13.9683 0.80422 16.2895L3.68728 15.46ZM4.217 10.2673C4.85451 8.59385 5.98655 7.07805 7.29507 5.56094L5.02334 3.60155C3.66206 5.17982 2.24396 7.01949 1.41354 9.19927L4.217 10.2673ZM7.29312 5.5632C7.46154 5.36871 7.65013 5.15072 7.84438 4.95555C7.94001 4.85946 8.02269 4.78359 8.09004 4.7287C8.16396 4.66845 8.18401 4.66263 8.15432 4.67724L6.82951 1.98562C6.36837 2.21258 5.96827 2.58784 5.71803 2.83927C5.43802 3.12061 5.18192 3.41842 5.02529 3.59929L7.29312 5.5632ZM8.47428 4.46499C8.45691 4.48005 8.43647 4.49158 8.41413 4.49873L7.50054 1.64122C7.13585 1.75782 6.79875 1.94724 6.50955 2.19787L8.47428 4.46499ZM8.41413 4.49873C8.39178 4.50587 8.36813 4.50842 8.34466 4.50617L8.631 1.51987C8.24982 1.48332 7.86524 1.52462 7.50054 1.64122L8.41413 4.49873ZM7.8035 1.67822C7.79975 1.68014 7.78759 1.68638 7.773 1.69423C7.76854 1.69664 7.74691 1.70824 7.72019 1.72403C7.71196 1.72889 7.6714 1.7527 7.62237 1.78705C7.59196 1.80892 7.50714 1.87641 7.45435 1.92384C7.33131 2.0545 6.99367 2.83638 7.06688 3.51048C7.5219 4.16738 8.46314 4.51554 8.67704 4.50306C8.75605 4.4906 8.87371 4.46388 8.91287 4.45274C8.97397 4.43446 9.02065 4.41602 9.02923 4.41267C9.05908 4.40101 9.08227 4.39079 9.08681 4.38879C9.10218 4.38205 9.11471 4.37624 9.11839 4.37453C9.13579 4.36647 9.15744 4.3561 9.17386 4.34821C9.21256 4.32961 9.27116 4.30119 9.34162 4.26685C9.48316 4.19786 9.67988 4.10136 9.8749 4.0045C10.0672 3.909 10.2679 3.80812 10.4127 3.73239C10.4755 3.69954 10.5626 3.65341 10.6341 3.61041C10.6534 3.59883 10.6898 3.5766 10.7317 3.54761C10.7523 3.53333 10.7885 3.50767 10.8309 3.47313C10.8576 3.45138 10.9595 3.36855 11.0627 3.23817C11.1113 3.17681 11.2228 3.02793 11.301 2.80719C11.3814 2.58005 11.4785 2.11193 11.2163 1.61055C10.9614 1.12304 10.5398 0.93825 10.3367 0.874345C10.129 0.809 9.9562 0.804853 9.88139 0.805045C9.72339 0.805448 9.60137 0.831503 9.56748 0.838743C9.51545 0.849857 9.47376 0.861597 9.44978 0.868666L10.2978 3.7463C10.2794 3.75173 10.2424 3.76225 10.1942 3.77255C10.1641 3.77898 10.045 3.80464 9.88905 3.80503C9.81527 3.80522 9.64329 3.80117 9.43623 3.73602C9.23376 3.67231 8.81255 3.48781 8.55783 3.00069C8.29586 2.4997 8.3929 2.03206 8.47316 1.80549C8.55114 1.58533 8.66225 1.43713 8.71021 1.37653C8.81218 1.24767 8.91214 1.16674 8.93608 1.14724C8.97571 1.11496 9.00834 1.0919 9.02471 1.08058C9.05808 1.05749 9.08299 1.04253 9.08804 1.0395C9.1027 1.03068 9.08934 1.039 9.02223 1.0741C8.90717 1.13429 8.73027 1.22335 8.54041 1.31765C8.35329 1.41059 8.1634 1.50375 8.02721 1.57013C7.9588 1.60347 7.90577 1.62917 7.87421 1.64433C7.85551 1.65333 7.85237 1.65475 7.85712 1.65255C7.85764 1.65231 7.86776 1.6476 7.88151 1.64157C7.88523 1.63993 7.90781 1.62997 7.93724 1.61847C7.94561 1.6152 7.99214 1.59681 8.05313 1.57857C8.09223 1.56745 8.20985 1.54074 8.28884 1.52828C8.50271 1.5158 9.44393 1.86396 9.89895 2.52085C9.97216 3.19494 9.63452 3.9768 9.51151 4.10744C9.45874 4.15485 9.37396 4.22232 9.34359 4.24416C9.29466 4.27844 9.25425 4.30215 9.24622 4.3069C9.21989 4.32245 9.19887 4.33372 9.19522 4.33569C9.18227 4.34266 9.17257 4.34761 9.17216 4.34782L7.8035 1.67822ZM10.3019 3.74509C10.7638 3.60754 11.3681 3.55594 12.1301 3.55578C12.5028 3.5557 12.8846 3.56733 13.287 3.57994C13.6806 3.59227 14.0985 3.60571 14.5032 3.60571V0.605708C14.1544 0.605708 13.7857 0.594092 13.381 0.581414C12.9852 0.569014 12.557 0.555686 12.1295 0.555777C11.2911 0.555956 10.3343 0.605241 9.44567 0.869883L10.3019 3.74509ZM14.5032 3.60571C14.91 3.60571 15.3465 3.58202 15.7529 3.55908C16.174 3.53531 16.573 3.51169 16.9655 3.50335C17.7899 3.48584 18.3569 3.54696 18.7047 3.68774L19.8304 0.906968C18.8749 0.520168 17.7757 0.485467 16.9018 0.504028C16.445 0.513729 15.9867 0.54111 15.5839 0.563845C15.1664 0.587409 14.8123 0.605708 14.5032 0.605708V3.60571ZM18.7047 3.68777C19.3231 3.93808 20.0506 4.39609 20.7039 4.97297C21.3648 5.55651 21.8503 6.17365 22.086 6.68767L24.813 5.43714C24.3456 4.41798 23.5427 3.47744 22.6896 2.72417C21.8289 1.96424 20.817 1.30631 19.8303 0.906942L18.7047 3.68777ZM22.0858 6.68727C23.4689 9.70554 24.5695 11.4237 24.4966 14.2892L27.4956 14.3655C27.5909 10.6218 26.0338 8.10134 24.8131 5.43754L22.0858 6.68727ZM24.4966 14.289C24.4346 16.7162 23.0986 18.9426 21.4549 21.022L23.8084 22.8824C25.5305 20.7039 27.4074 17.8193 27.4956 14.3656L24.4966 14.289ZM21.4541 21.023C19.6886 23.2604 17.315 23.8622 14.2407 24.4429L14.7974 27.3907C17.8493 26.8144 21.2846 26.0807 23.8092 22.8814L21.4541 21.023ZM14.2391 24.4431C13.2462 24.6318 12.183 24.33 11.1269 23.8477L9.88052 26.5765C11.1047 27.1356 12.8746 27.756 14.799 27.3904L14.2391 24.4431Z" fill="black" mask="url(#path-1-outside-1_103_191)"/>
</svg>
