<svg width="20" height="27" viewBox="0 0 20 27" fill="none" xmlns="http://www.w3.org/2000/svg">
<g clip-path="url(#clip0_117_11)">
<mask id="mask0_117_11" style="mask-type:luminance" maskUnits="userSpaceOnUse" x="0" y="0" width="20" height="27">
<path d="M19.9968 0H0V27H19.9968V0Z" fill="white"/>
</mask>
<g mask="url(#mask0_117_11)">
<path d="M16.9192 24.381C16.8956 24.7974 16.7176 25.1888 16.4217 25.4748C16.1257 25.7608 15.7344 25.9198 15.3278 25.9191H4.65627C4.24973 25.9198 3.85835 25.7608 3.56243 25.4748C3.26652 25.1888 3.08851 24.7974 3.06493 24.381L2.10694 4.32039H17.8931L16.9192 24.381ZM6.31445 2.17489C6.31445 1.88821 6.42544 1.61328 6.623 1.41057C6.82057 1.20786 7.08852 1.09398 7.36792 1.09398H12.6321C12.9093 1.09396 13.1753 1.20604 13.3725 1.40594C13.5697 1.60583 13.6822 1.87742 13.6856 2.16183V3.23948H6.31445V2.17489ZM20 3.25254H14.7358V2.16183C14.735 1.58931 14.5132 1.04043 14.1189 0.635289C13.7247 0.230148 13.1901 0.00172642 12.6321 0L7.36792 0C6.80968 0.000865238 6.27458 0.229011 5.88015 0.634338C5.48571 1.03967 5.26416 1.58904 5.26416 2.16183V3.23948H0V4.32039H1.05347L2.03055 24.4365C2.06404 25.1279 2.35529 25.7796 2.84404 26.2567C3.33279 26.7339 3.98162 27 4.65627 27H15.3405C16.0155 27.0001 16.6647 26.7341 17.154 26.257C17.6432 25.7799 17.9352 25.1282 17.9694 24.4365L18.9465 4.32039H19.9968L20 3.25254Z" fill="white"/>
</g>
<path d="M10.5286 6.479H9.4751V23.7606H10.5286V6.479Z" fill="white"/>
<path d="M14.7361 6.479H13.6826L12.6323 23.7573H13.6826L14.7361 6.479Z" fill="white"/>
<path d="M7.36792 23.7573L6.31445 6.479H5.26416L6.31445 23.7573H7.36792Z" fill="white"/>
</g>
<defs>
<clipPath id="clip0_117_11">
<rect width="20" height="27" fill="white"/>
</clipPath>
</defs>
</svg>
